<svg width="35" height="35" viewBox="0 0 35 35" fill="none" xmlns="http://www.w3.org/2000/svg">
<g clip-path="url(#clip0_2724_8672)">
<ellipse cx="17" cy="19.5" rx="17" ry="15.5" fill="url(#paint0_linear_2724_8672)"/>
<path d="M13.8441 3.53916C13.6654 3.0758 13.425 2.63868 13.1294 2.23963C12.0122 0.793721 10.4013 0.438398 10.0686 0.371858C9.53628 0.265394 7.73971 -0.00475803 6.1514 1.14306C4.99094 1.98345 4.56708 3.12927 4.38543 3.64096C3.67878 5.63716 4.26898 7.44904 4.63695 8.53032C4.78267 8.95684 6.50007 14.0072 9.06452 14.0485C12.2438 14.099 14.9014 6.41368 13.8441 3.53916Z" fill="#D38931" stroke="black" stroke-width="0.73418" stroke-miterlimit="3"/>
<path d="M12.0428 4.83677C11.8982 4.19061 11.7563 3.65606 11.3987 3.09878C11.1106 2.63234 10.7468 2.2172 10.3221 1.87045C9.79769 1.46069 9.19956 1.1553 8.56012 0.970832C7.96126 0.794501 7.60394 0.689368 7.14681 0.781859C6.49073 0.914939 5.99567 1.27822 5.52191 1.80921C5.06666 2.2997 4.80304 2.95527 4.56107 3.5792C4.14387 4.67045 4.21307 5.61266 4.2683 6.26275C4.33084 6.99868 4.48788 7.52701 4.72476 8.32083C4.92499 8.99185 5.17316 9.64763 5.46735 10.2831C5.67961 10.7409 5.87856 11.1654 6.23455 11.6804C6.65775 12.2899 6.86934 12.5947 7.09491 12.6859L12.0428 4.83677Z" fill="#99622B"/>
<path d="M13.8441 3.53916C13.6654 3.0758 13.425 2.63868 13.1294 2.23963C12.0122 0.793721 10.4013 0.438398 10.0686 0.371858C9.53628 0.265394 7.73971 -0.00475803 6.1514 1.14306C4.99094 1.98345 4.56708 3.12927 4.38543 3.64096C3.67878 5.63716 4.26898 7.44904 4.63695 8.53032C4.72332 8.78312 5.36183 10.6603 6.40159 12.1561" stroke="black" stroke-width="0.73418" stroke-miterlimit="3"/>
<path d="M7.06622 0.777788L6.98438 0.799747L7.06888 0.811058C7.12411 0.813055 7.20462 0.819043 7.30643 0.829024C7.40823 0.839005 7.53067 0.852979 7.66974 0.874937C7.7396 0.885583 7.8128 0.898891 7.88998 0.912199C7.96717 0.925507 8.04768 0.943473 8.13086 0.962769C8.29787 0.999366 8.47487 1.05193 8.65918 1.11049C8.74968 1.14775 8.84616 1.17237 8.93799 1.21429C9.02981 1.25621 9.12763 1.28948 9.22012 1.33872L9.36185 1.40526C9.40975 1.42788 9.45567 1.45516 9.50225 1.48178C9.54882 1.5084 9.59607 1.53368 9.64264 1.56096L9.78504 1.64813C9.82696 1.67874 9.87354 1.70669 9.91812 1.73863C9.9627 1.77056 10.0066 1.80516 10.0512 1.8371L10.1177 1.88568L10.1344 1.89832C10.1359 1.89944 10.1366 1.89995 10.1368 1.90005L10.1324 1.89632L10.1284 1.893C10.1284 1.893 10.1376 1.90049 10.1368 1.90005L10.141 1.90364L10.1743 1.93226L10.3074 2.0467L10.3739 2.10326C10.3963 2.12058 10.4174 2.13948 10.4371 2.15982L10.5476 2.26895C10.5849 2.30754 10.6241 2.34214 10.6607 2.38273L10.7685 2.5065C10.8038 2.54775 10.841 2.58701 10.8743 2.62959L10.9721 2.75868C11.0007 2.80127 11.0387 2.84186 11.0673 2.88644L11.1544 3.01952C11.183 3.0661 11.215 3.10735 11.2389 3.1526L11.3161 3.28568C11.3707 3.37151 11.4113 3.46201 11.4572 3.54785C11.5477 3.72018 11.6142 3.89053 11.6808 4.04956C11.7473 4.20859 11.8019 4.3583 11.8425 4.49271C11.883 4.62712 11.9196 4.74623 11.9423 4.84537L12.0301 4.83473C12.0301 4.78283 12.0328 4.72427 12.0301 4.66172C12.0274 4.59918 12.0254 4.53064 12.0181 4.45811C12.0108 4.38558 12.0048 4.30707 11.9915 4.22655C11.9782 4.14604 11.9669 4.05954 11.9469 3.9717C11.9069 3.77997 11.8538 3.59122 11.7879 3.40678C11.7513 3.30764 11.716 3.20716 11.6681 3.10802C11.6238 3.00433 11.5736 2.90325 11.5177 2.80526L11.4332 2.65355C11.4033 2.60298 11.3694 2.55574 11.3368 2.50583L11.2369 2.35678C11.2017 2.30821 11.1618 2.26296 11.1245 2.21505L11.0094 2.07332C10.9701 2.02608 10.9235 1.98216 10.8803 1.93691L10.7472 1.80383C10.7264 1.78181 10.7041 1.76114 10.6807 1.74195L10.6141 1.68539L10.481 1.57228L10.4478 1.54433L10.4232 1.5237L10.4039 1.51039L10.3293 1.4565C10.2312 1.38423 10.129 1.31758 10.0233 1.25688L9.86689 1.16505C9.81365 1.13777 9.76042 1.11182 9.70652 1.08653C9.65263 1.06125 9.60072 1.0333 9.54616 1.01134L9.38447 0.944804C9.27867 0.903549 9.17021 0.867617 9.06441 0.837009C8.95861 0.806401 8.85149 0.775792 8.75101 0.759157C8.65053 0.742522 8.54806 0.719899 8.45092 0.710583C8.35377 0.701268 8.25995 0.691287 8.16945 0.684633C8.07896 0.677979 7.99312 0.677979 7.91061 0.677979C7.8281 0.677979 7.75025 0.68064 7.67772 0.685963C7.5522 0.693736 7.42716 0.70795 7.3031 0.728549C7.1993 0.745184 7.12012 0.765146 7.06622 0.777788Z" fill="black"/>
<path d="M21.0622 3.53916C21.2408 3.0758 21.4812 2.63868 21.7768 2.23963C22.894 0.793721 24.5049 0.438398 24.8376 0.371858C25.37 0.265394 27.1665 -0.00475803 28.7549 1.14306C29.9153 1.98345 30.3392 3.12927 30.5208 3.64096C31.2275 5.63716 30.6373 7.44904 30.2693 8.53032C30.1236 8.95684 28.4062 14.0072 25.8417 14.0485C22.6625 14.099 20.0049 6.41368 21.0622 3.53916Z" fill="#D38931" stroke="black" stroke-width="0.73418" stroke-miterlimit="3"/>
<path d="M22.8634 4.83677C23.0081 4.19061 23.1499 3.65606 23.5075 3.09878C23.7956 2.63234 24.1595 2.2172 24.5842 1.87045C25.1086 1.46069 25.7067 1.1553 26.3461 0.970832C26.945 0.794501 27.3023 0.689368 27.7594 0.781859C28.4155 0.914939 28.9106 1.27822 29.3843 1.80921C29.8396 2.2997 30.1032 2.95527 30.3452 3.5792C30.7624 4.67045 30.6932 5.61266 30.638 6.26275C30.5754 6.99868 30.4184 7.52701 30.1815 8.32083C29.9813 8.99185 29.7331 9.64763 29.4389 10.2831C29.2266 10.7409 29.0277 11.1654 28.6717 11.6804C28.2485 12.2899 28.0369 12.5947 27.8113 12.6859L22.8634 4.83677Z" fill="#99622B"/>
<path d="M21.0622 3.53916C21.2408 3.0758 21.4812 2.63868 21.7768 2.23963C22.894 0.793721 24.5049 0.438398 24.8376 0.371858C25.37 0.265394 27.1665 -0.00475803 28.7549 1.14306C29.9153 1.98345 30.3392 3.12927 30.5208 3.64096C31.2275 5.63716 30.6373 7.44904 30.2693 8.53032C30.1829 8.78312 29.5444 10.6603 28.5047 12.1561" stroke="black" stroke-width="0.73418" stroke-miterlimit="3"/>
<path d="M27.84 0.777788L27.9219 0.799747L27.8374 0.811058C27.7821 0.813055 27.7016 0.819043 27.5998 0.829024C27.498 0.839005 27.3756 0.852979 27.2365 0.874937C27.1666 0.885583 27.0935 0.898891 27.0163 0.912199C26.9391 0.925507 26.8586 0.943473 26.7754 0.962769C26.6084 0.999366 26.4314 1.05193 26.2471 1.11049C26.1566 1.14775 26.0601 1.17237 25.9683 1.21429C25.8764 1.25621 25.7786 1.28948 25.6861 1.33872L25.5444 1.40526C25.4965 1.42788 25.4506 1.45516 25.404 1.48178C25.3574 1.5084 25.3102 1.53368 25.2636 1.56096L25.1212 1.64813C25.0793 1.67874 25.0327 1.70669 24.9881 1.73863C24.9435 1.77056 24.8996 1.80516 24.855 1.8371L24.7885 1.88568L24.7719 1.89832C24.7704 1.89944 24.7697 1.89995 24.7695 1.90005L24.7739 1.89632L24.7779 1.893C24.7779 1.893 24.7686 1.90049 24.7695 1.90005L24.7652 1.90364L24.732 1.93226L24.5989 2.0467L24.5323 2.10326C24.5099 2.12058 24.4888 2.13948 24.4691 2.15982L24.3587 2.26895C24.3214 2.30754 24.2821 2.34214 24.2455 2.38273L24.1377 2.5065C24.1025 2.54775 24.0652 2.58701 24.032 2.62959L23.9341 2.75868C23.9055 2.80127 23.8676 2.84186 23.839 2.88644L23.7518 3.01952C23.7232 3.0661 23.6913 3.10735 23.6673 3.1526L23.5901 3.28568C23.5356 3.37151 23.495 3.46201 23.4491 3.54785C23.3586 3.72018 23.292 3.89053 23.2255 4.04956C23.1589 4.20859 23.1044 4.3583 23.0638 4.49271C23.0232 4.62712 22.9866 4.74623 22.964 4.84537L22.8762 4.83473C22.8762 4.78283 22.8735 4.72427 22.8762 4.66172C22.8788 4.59918 22.8808 4.53064 22.8881 4.45811C22.8954 4.38558 22.9014 4.30707 22.9147 4.22655C22.9281 4.14604 22.9394 4.05954 22.9593 3.9717C22.9993 3.77997 23.0524 3.59122 23.1184 3.40678C23.155 3.30764 23.1902 3.20716 23.2381 3.10802C23.2825 3.00433 23.3327 2.90325 23.3885 2.80526L23.473 2.65355C23.503 2.60298 23.5369 2.55574 23.5695 2.50583L23.6693 2.35678C23.7046 2.30821 23.7445 2.26296 23.7818 2.21505L23.8969 2.07332C23.9361 2.02608 23.9827 1.98216 24.026 1.93691L24.159 1.80383C24.1799 1.78181 24.2021 1.76114 24.2256 1.74195L24.2921 1.68539L24.4252 1.57228L24.4585 1.54433L24.4831 1.5237L24.5024 1.51039L24.5769 1.4565C24.6751 1.38423 24.7773 1.31758 24.883 1.25688L25.0394 1.16505C25.0926 1.13777 25.1458 1.11182 25.1997 1.08653C25.2536 1.06125 25.3055 1.0333 25.3601 1.01134L25.5218 0.944804C25.6276 0.903549 25.736 0.867617 25.8418 0.837009C25.9476 0.806401 26.0548 0.775792 26.1552 0.759157C26.2557 0.742522 26.3582 0.719899 26.4553 0.710583C26.5525 0.701268 26.6463 0.691287 26.7368 0.684633C26.8273 0.677979 26.9131 0.677979 26.9956 0.677979C27.0781 0.677979 27.156 0.68064 27.2285 0.685963C27.354 0.693736 27.4791 0.70795 27.6031 0.728549C27.707 0.745184 27.7861 0.765146 27.84 0.777788Z" fill="black"/>
<path d="M8.11876 9.20575C7.75203 9.72822 6.75168 11.056 5.98761 13.0274C5.50509 14.2703 5.10931 15.2897 5.02569 16.1493C4.82708 16.3584 4.64132 16.5794 4.46946 16.8112C3.6182 17.9586 3.33799 19.0668 3.18292 19.6938C2.6072 21.9647 3.06711 23.795 3.16561 24.159C4.89111 30.5269 10.1023 33.137 17.5837 33.137C23.7908 33.137 30.3816 29.8211 31.6485 24.159C32.1144 21.9627 31.9148 20.4219 31.6485 19.5487C31.3076 18.4371 30.7939 17.3869 30.1267 16.4363C30.1046 15.7348 29.9812 14.9593 29.5387 13.6624C29.284 12.907 28.9841 12.1675 28.6408 11.448C28.0318 10.2341 23.1972 1.96772 16.7272 2.63328C12.8443 3.03462 10.1155 6.39174 8.11876 9.20575Z" fill="#D38931" stroke="black" stroke-width="0.546875" stroke-miterlimit="10"/>
<path d="M13.9496 15.0382C13.972 14.913 13.9753 14.7851 13.9595 14.6589C13.9409 14.5152 13.8744 14.2211 13.4878 13.8158C13.0845 13.3933 12.6986 12.9888 12.2495 13.036C11.6925 13.0946 11.3978 13.8092 10.9972 14.78C10.6505 15.6197 10.7523 15.8666 10.8089 15.9664C10.9999 16.3058 11.4616 16.3657 11.7684 16.4076C11.968 16.4342 12.8836 16.5267 13.4984 15.8932C13.7318 15.6604 13.8891 15.3623 13.9496 15.0382Z" fill="black"/>
<path d="M11.9756 14.8668C12.0756 14.5717 12.0435 14.2941 11.904 14.2468C11.7644 14.1995 11.5702 14.4004 11.4702 14.6956C11.3701 14.9907 11.4022 15.2683 11.5418 15.3156C11.6813 15.3629 11.8756 15.162 11.9756 14.8668Z" fill="white"/>
<path d="M21.0517 15.0382C21.0287 14.9131 21.0251 14.7851 21.0411 14.6589C21.0597 14.5152 21.1262 14.2211 21.5135 13.8158C21.9167 13.3933 22.302 12.9888 22.7511 13.036C23.3081 13.0946 23.6028 13.8092 24.0034 14.78C24.3501 15.6197 24.2483 15.8666 24.1917 15.9664C24.0008 16.3058 23.539 16.3657 23.2329 16.4076C23.0333 16.4342 22.117 16.5267 21.5028 15.8932C21.2692 15.6606 21.1119 15.3624 21.0517 15.0382Z" fill="black"/>
<path d="M23.3815 15.3403C23.5218 15.2951 23.5579 15.018 23.4623 14.7214C23.3667 14.4248 23.1755 14.221 23.0352 14.2663C22.8949 14.3115 22.8588 14.5886 22.9544 14.8852C23.05 15.1818 23.2412 15.3856 23.3815 15.3403Z" fill="white"/>
<path d="M15.9344 19.9028C16.0615 19.1576 16.5266 18.5301 17.2719 18.3125C17.5673 18.2267 17.9513 18.1482 18.1994 18.3658C18.5548 18.6759 18.8682 19.0531 19.1743 19.4111L19.6061 18.3684C18.0717 18.3884 16.6517 17.6292 15.1206 17.5573V18.7783C16.0076 18.7045 17.0077 18.586 17.8328 19.0039C18.2174 19.1982 18.4403 19.4697 18.6892 19.8124C18.9564 20.1971 19.313 20.5111 19.7285 20.7273C19.8099 20.7725 19.9003 20.7988 19.9932 20.8044C20.086 20.81 20.179 20.7947 20.2651 20.7596C20.3513 20.7244 20.4284 20.6704 20.4909 20.6015C20.5534 20.5326 20.5996 20.4505 20.6262 20.3613L20.7706 19.9468C21.0287 19.2022 19.8496 18.8821 19.5921 19.6221L19.4484 20.0366L20.3454 19.6713C19.8982 19.4464 19.6913 19.0864 19.3885 18.7078C19.0853 18.3376 18.6973 18.0461 18.2573 17.8581C17.2592 17.4202 16.1826 17.4668 15.1206 17.556C14.3435 17.6225 14.3262 18.7397 15.1206 18.777C16.6511 18.8489 18.0571 19.6087 19.6061 19.5881C20.1637 19.5808 20.374 18.9394 20.0379 18.5454C19.654 18.0963 19.2341 17.534 18.7191 17.2279C18.2041 16.9219 17.5014 16.9718 16.9472 17.1335C16.3911 17.2969 15.8915 17.6122 15.5046 18.0437C15.1177 18.4753 14.8587 19.0062 14.7567 19.5768C14.7014 19.9015 14.8432 20.2349 15.1832 20.328C15.4766 20.4086 15.8785 20.2282 15.9344 19.9015V19.9028Z" fill="#D38931"/>
<path d="M23.1723 23.767C23.0692 23.958 20.9945 27.6596 17.1931 27.4127C13.7297 27.1872 12.136 23.8562 11.9145 23.3957C11.7148 22.9825 10.3088 19.9356 11.8925 17.8776C12.6337 16.9154 13.7982 16.4709 14.61 16.1615C15.5386 15.8107 16.5212 15.6247 17.5138 15.6119C18.5221 15.5944 19.5254 15.7578 20.4761 16.0943C21.1229 16.3298 22.3067 16.7597 23.0952 17.6912C24.5364 19.39 24.0806 22.0795 23.1723 23.767Z" fill="#EFAD1A"/>
<path d="M20.4139 20.6861C20.5557 20.9895 21.3715 22.7063 20.5064 23.9725C19.7579 25.0678 18.1303 25.274 18.0817 25.2794C18.0578 25.2794 17.9693 25.2847 17.8382 25.3053C17.7899 25.3174 17.7402 25.3225 17.6905 25.3206C17.5853 25.31 17.578 25.2541 17.4908 25.2428C17.3837 25.2268 17.3658 25.3053 17.2047 25.314C17.1834 25.314 17.1302 25.3106 17.0244 25.3013C16.9186 25.292 16.8494 25.2847 16.8454 25.284C16.7942 25.2787 15.0701 25.0618 14.3927 23.9532C13.6608 22.7555 14.5079 21.1845 14.77 20.6881C15.0202 20.213 15.9677 18.4184 17.6053 18.4204C19.2688 18.4204 20.219 20.2702 20.4139 20.6861Z" fill="#2D2D2D"/>
<path d="M16.9819 20.0157C17.3272 19.6704 17.4749 19.2581 17.3117 19.0949C17.1485 18.9317 16.7363 19.0794 16.3909 19.4247C16.0456 19.7701 15.8979 20.1823 16.0611 20.3455C16.2243 20.5087 16.6365 20.361 16.9819 20.0157Z" fill="white"/>
<path d="M17.5261 25.5748C17.5261 25.5748 17.5334 25.6074 17.5507 25.6653C17.576 25.7481 17.606 25.8294 17.6406 25.9088C17.6927 26.0279 17.7579 26.1408 17.8349 26.2455C17.9313 26.374 18.0492 26.4848 18.1835 26.5729C18.2199 26.5977 18.2579 26.6199 18.2973 26.6394C18.3376 26.6593 18.3789 26.6771 18.4211 26.6927C18.5092 26.7256 18.6004 26.7499 18.6932 26.7652C18.7943 26.7808 18.8965 26.7875 18.9987 26.7851L19.157 26.7812C19.2162 26.7765 19.2794 26.7738 19.336 26.7685C19.3926 26.7632 19.4371 26.7552 19.491 26.7439C19.5449 26.7326 19.6008 26.7233 19.6547 26.706C19.7086 26.6887 19.7632 26.676 19.8171 26.6561C19.871 26.6361 19.9249 26.6188 19.9788 26.5975C20.1995 26.5069 20.4095 26.3922 20.6049 26.2555C20.7074 26.1889 20.8045 26.1158 20.9083 26.0412L21.0587 25.9254L21.0913 25.8995L21.1286 25.8689L21.2031 25.8083L21.2776 25.7478L21.3442 25.6886L21.4773 25.5741C21.5651 25.4923 21.6549 25.4131 21.7368 25.3293C21.9018 25.1629 22.0582 24.9966 22.1986 24.8315L22.301 24.7084C22.3336 24.6672 22.3676 24.6259 22.3982 24.586C22.4647 24.5068 22.5226 24.4276 22.5798 24.3511C22.6371 24.2746 22.6896 24.1987 22.7395 24.1269C22.7894 24.055 22.8367 23.9865 22.8799 23.9213C22.9658 23.7882 23.0403 23.6744 23.1002 23.5773L23.2386 23.351L23.2865 23.2705L23.3151 23.2818L23.2805 23.3683C23.2579 23.4255 23.2226 23.5074 23.1767 23.6119C23.1308 23.7163 23.0716 23.8414 22.9984 23.9825C22.9252 24.1236 22.8393 24.2806 22.7375 24.4483C22.6357 24.6159 22.5199 24.7929 22.3842 24.9719C22.2444 25.1609 22.0942 25.3419 21.9344 25.5142C21.8525 25.6054 21.7627 25.6912 21.6736 25.7804C21.5844 25.8696 21.4886 25.9554 21.3894 26.0359C21.1927 26.2052 20.987 26.3638 20.7733 26.511C20.5572 26.6578 20.3253 26.7796 20.0819 26.8743C19.6221 27.052 19.1208 27.0934 18.638 26.9934C18.4292 26.9465 18.2336 26.8533 18.0658 26.7206C17.9244 26.6087 17.8058 26.4707 17.7164 26.314C17.6473 26.1944 17.5934 26.0665 17.5561 25.9334C17.5318 25.8479 17.5138 25.7607 17.5022 25.6726C17.4942 25.6114 17.4922 25.5788 17.4922 25.5788L17.5261 25.5748Z" fill="black"/>
<path d="M17.5268 25.5781C17.5268 25.5781 17.5268 25.6107 17.5268 25.6739C17.5247 25.7652 17.514 25.8561 17.4948 25.9454C17.4668 26.0883 17.4181 26.2264 17.3504 26.3553C17.261 26.5308 17.1362 26.6857 16.9838 26.8104C16.9414 26.8464 16.8969 26.88 16.8507 26.9109C16.8022 26.9415 16.7516 26.9715 16.6984 26.9988C16.5872 27.053 16.4702 27.0943 16.3497 27.1219C16.2255 27.1503 16.099 27.1676 15.9717 27.1738L15.8766 27.1784H15.7748C15.7142 27.1751 15.6563 27.1744 15.5918 27.1698C15.5273 27.1651 15.4487 27.1558 15.3815 27.1431C15.3143 27.1305 15.2484 27.1205 15.1819 27.1019C15.0462 27.0694 14.9137 27.0249 14.786 26.9688C14.5286 26.8569 14.2846 26.7163 14.0587 26.5496C13.9496 26.4658 13.8445 26.3786 13.7433 26.2914L13.5956 26.1584L13.555 26.1218L13.5197 26.0885L13.4499 26.0219C13.3574 25.9394 13.2616 25.8323 13.1731 25.7372C13.0846 25.642 13.0021 25.5415 12.9255 25.4404C12.6423 25.0787 12.4037 24.6841 12.2149 24.2653C12.1397 24.1 12.0731 23.931 12.0153 23.7589C11.962 23.6066 11.9261 23.4695 11.8962 23.3597C11.8662 23.2499 11.8503 23.1601 11.8383 23.0975L11.8203 23.0044L11.8496 22.9944L11.8809 23.0822C11.9008 23.1394 11.9328 23.2233 11.974 23.3284C12.0153 23.4335 12.0698 23.5613 12.1364 23.7044C12.2029 23.8474 12.2828 24.0071 12.3773 24.1775C12.4717 24.3478 12.5769 24.5281 12.71 24.7098C12.8411 24.9029 12.983 25.0884 13.1351 25.2654C13.2123 25.3592 13.2982 25.4484 13.3827 25.5402C13.4672 25.632 13.557 25.7199 13.6535 25.8064C13.8419 25.9821 14.0396 26.1475 14.2457 26.3021C14.4499 26.4577 14.6709 26.5901 14.9044 26.6967C15.3449 26.8943 15.8328 26.9618 16.3104 26.891C16.4998 26.8601 16.6805 26.7898 16.841 26.6847C17.0014 26.5796 17.138 26.442 17.242 26.2808C17.3165 26.1675 17.3762 26.0452 17.4196 25.9168C17.4479 25.8345 17.4702 25.7502 17.4862 25.6646C17.4975 25.6054 17.5015 25.5728 17.5015 25.5728L17.5268 25.5781Z" fill="black"/>
<path d="M14.5418 29.0782C14.3839 28.2955 14.3433 27.4935 14.4214 26.6988C14.6753 26.8403 14.9493 26.9424 15.2338 27.0015C15.6035 27.0952 15.9907 27.0952 16.3604 27.0015C16.4202 26.9849 17.085 26.7966 17.3046 26.3974C17.3761 26.2708 17.4303 26.1352 17.4656 25.9941C17.4915 25.8724 17.4955 25.7619 17.5162 25.7612C17.5368 25.7606 17.5488 25.8484 17.5721 25.9509C17.618 26.1194 17.701 26.2756 17.8149 26.408C17.9552 26.5743 18.128 26.7101 18.3226 26.8072C18.5583 26.9174 18.8165 26.9709 19.0765 26.9636C19.3254 26.9626 19.5725 26.9217 19.8085 26.8425C20.04 26.7746 20.2633 26.6809 20.4739 26.563C20.6048 27.4297 20.5766 28.3129 20.3907 29.1694C19.9469 31.1896 18.7139 32.5104 18.0558 32.7027C17.837 32.7635 17.6108 32.7931 17.3837 32.7905C17.1395 32.7758 16.8988 32.7244 16.6698 32.6381C16.0323 32.3873 14.9497 31.0744 14.5418 29.0782Z" fill="black"/>
<path d="M15.7767 28.3402C15.9717 28.1027 16.4335 27.8831 16.7748 28.0175C17.1355 28.1593 17.1681 28.6164 17.4449 28.6277C17.7217 28.639 17.7896 28.2018 18.1715 28.0867C18.5082 27.9849 18.9088 28.1892 19.0765 28.3862C19.7605 29.1906 18.5934 32.2654 17.4263 32.2701C16.2592 32.2747 15.0648 29.2046 15.7767 28.3402Z" fill="#E74000"/>
<path d="M16.3859 23.5051C16.5444 23.1232 16.2555 22.6405 15.7406 22.4268C15.2257 22.2131 14.6798 22.3494 14.5213 22.7312C14.3628 23.1131 14.6518 23.5958 15.1667 23.8095C15.6816 24.0232 16.2275 23.8869 16.3859 23.5051Z" fill="black"/>
<path d="M19.8656 23.8064C20.3805 23.5927 20.6694 23.1099 20.5109 22.7281C20.3525 22.3462 19.8066 22.2099 19.2917 22.4236C18.7768 22.6373 18.4878 23.1201 18.6463 23.5019C18.8048 23.8838 19.3507 24.0201 19.8656 23.8064Z" fill="black"/>
</g>
<defs>
<linearGradient id="paint0_linear_2724_8672" x1="26.338" y1="32.7131" x2="3.52121" y2="10.917" gradientUnits="userSpaceOnUse">
<stop stop-color="#76C452"/>
<stop offset="1" stop-color="#BADA94"/>
</linearGradient>
<clipPath id="clip0_2724_8672">
<rect width="35" height="35" fill="white"/>
</clipPath>
</defs>
</svg>
